<svg width="30" height="34" viewBox="0 0 30 34" fill="none" xmlns="http://www.w3.org/2000/svg">
<g clip-path="url(#clip0_391_204)">
<path d="M4.69995 32.9998V23.1998L18.8 15.2998L26.2999 19.8998C26.2999 19.8998 26.2999 19.8998 26.2999 19.9998L4.69995 32.9998Z" fill="url(#paint0_linear_391_204)"/>
<path d="M4.69995 21.6001V12.5001L9.99995 9.6001L17.8 14.5001C17.8 14.5001 17.8 14.5001 17.8 14.6001L4.69995 21.6001Z" fill="url(#paint1_linear_391_204)"/>
<path d="M18.7 13.6999L11.3 9.0999C11.3 9.0999 11.3 9.0999 11.3 8.9999L21.6 2.8999L29.1 7.0999C29.1 7.0999 29.1 7.0999 29.1 7.1999L18.7 13.6999Z" fill="url(#paint2_linear_391_204)"/>
</g>
<defs>
<linearGradient id="paint0_linear_391_204" x1="23.2441" y1="14.8758" x2="-4.09986" y2="40.2856" gradientUnits="userSpaceOnUse">
<stop stop-color="#2083FE"/>
<stop offset="1" stop-color="#013B83"/>
</linearGradient>
<linearGradient id="paint1_linear_391_204" x1="1.41855" y1="23.953" x2="18.3405" y2="5.9074" gradientUnits="userSpaceOnUse">
<stop stop-color="#717171"/>
<stop offset="0.0932979" stop-color="#9E9898"/>
<stop offset="0.2304" stop-color="#D6D6D6"/>
<stop offset="0.4404" stop-color="#F7F7F7"/>
<stop offset="0.6983" stop-color="#D6D6D6"/>
<stop offset="0.7992" stop-color="#9E9E9E"/>
<stop offset="0.8356" stop-color="#9B9B9B"/>
</linearGradient>
<linearGradient id="paint2_linear_391_204" x1="10.6324" y1="17.3175" x2="31.591" y2="-2.903" gradientUnits="userSpaceOnUse">
<stop stop-color="#717171"/>
<stop offset="0.0932979" stop-color="#9E9898"/>
<stop offset="0.2304" stop-color="#D6D6D6"/>
<stop offset="0.4404" stop-color="#F7F7F7"/>
<stop offset="0.6983" stop-color="#D6D6D6"/>
<stop offset="0.7992" stop-color="#9E9E9E"/>
<stop offset="0.8356" stop-color="#9B9B9B"/>
</linearGradient>
<clipPath id="clip0_391_204">
<rect width="29" height="34" fill="white" transform="translate(0.5)"/>
</clipPath>
</defs>
</svg>
